<mxfile host="app.diagrams.net" agent="Mozilla/5.0 (Windows NT 10.0; Win64; x64) AppleWebKit/537.36 (KHTML, like Gecko) Chrome/128.0.0.0 YaBrowser/24.10.0.0 Safari/537.36" version="24.8.6">
  <diagram id="C5RBs43oDa-KdzZeNtuy" name="Page-1">
    <mxGraphModel dx="835" dy="459" grid="1" gridSize="10" guides="1" tooltips="1" connect="1" arrows="1" fold="1" page="1" pageScale="1" pageWidth="827" pageHeight="1169" math="0" shadow="0">
      <root>
        <mxCell id="WIyWlLk6GJQsqaUBKTNV-0" />
        <mxCell id="WIyWlLk6GJQsqaUBKTNV-1" parent="WIyWlLk6GJQsqaUBKTNV-0" />
        <mxCell id="PSni2t7WZ-i_JzGDd249-49" value="" style="rounded=0;whiteSpace=wrap;html=1;" vertex="1" parent="WIyWlLk6GJQsqaUBKTNV-1">
          <mxGeometry x="150" y="70" width="400" height="390" as="geometry" />
        </mxCell>
        <mxCell id="WIyWlLk6GJQsqaUBKTNV-3" value="Организация" style="rounded=1;whiteSpace=wrap;html=1;fontSize=12;glass=0;strokeWidth=1;shadow=0;" parent="WIyWlLk6GJQsqaUBKTNV-1" vertex="1">
          <mxGeometry x="160" y="80" width="120" height="40" as="geometry" />
        </mxCell>
        <mxCell id="PSni2t7WZ-i_JzGDd249-0" value="Организация" style="rounded=1;whiteSpace=wrap;html=1;fontSize=12;glass=0;strokeWidth=1;shadow=0;" vertex="1" parent="WIyWlLk6GJQsqaUBKTNV-1">
          <mxGeometry x="160" y="160" width="120" height="40" as="geometry" />
        </mxCell>
        <mxCell id="PSni2t7WZ-i_JzGDd249-1" value="Организация" style="rounded=1;whiteSpace=wrap;html=1;fontSize=12;glass=0;strokeWidth=1;shadow=0;" vertex="1" parent="WIyWlLk6GJQsqaUBKTNV-1">
          <mxGeometry x="160" y="240" width="120" height="40" as="geometry" />
        </mxCell>
        <mxCell id="PSni2t7WZ-i_JzGDd249-3" value="Физ. лицо" style="rounded=1;whiteSpace=wrap;html=1;fontSize=12;glass=0;strokeWidth=1;shadow=0;" vertex="1" parent="WIyWlLk6GJQsqaUBKTNV-1">
          <mxGeometry x="160" y="400" width="120" height="40" as="geometry" />
        </mxCell>
        <mxCell id="PSni2t7WZ-i_JzGDd249-4" value="Физ. лицо" style="rounded=1;whiteSpace=wrap;html=1;fontSize=12;glass=0;strokeWidth=1;shadow=0;" vertex="1" parent="WIyWlLk6GJQsqaUBKTNV-1">
          <mxGeometry x="160" y="320" width="120" height="40" as="geometry" />
        </mxCell>
        <mxCell id="PSni2t7WZ-i_JzGDd249-5" value="Номер телефона ОРГ" style="rounded=1;whiteSpace=wrap;html=1;fontSize=12;glass=0;strokeWidth=1;shadow=0;" vertex="1" parent="WIyWlLk6GJQsqaUBKTNV-1">
          <mxGeometry x="414" y="80" width="120" height="40" as="geometry" />
        </mxCell>
        <mxCell id="PSni2t7WZ-i_JzGDd249-6" value="Рубрика" style="rounded=1;whiteSpace=wrap;html=1;fontSize=12;glass=0;strokeWidth=1;shadow=0;" vertex="1" parent="WIyWlLk6GJQsqaUBKTNV-1">
          <mxGeometry x="414" y="160" width="120" height="40" as="geometry" />
        </mxCell>
        <mxCell id="PSni2t7WZ-i_JzGDd249-7" value="Город" style="rounded=1;whiteSpace=wrap;html=1;fontSize=12;glass=0;strokeWidth=1;shadow=0;" vertex="1" parent="WIyWlLk6GJQsqaUBKTNV-1">
          <mxGeometry x="414" y="240" width="120" height="40" as="geometry" />
        </mxCell>
        <mxCell id="PSni2t7WZ-i_JzGDd249-8" value="Номер телефона&amp;nbsp;&lt;div&gt;ФЛ&lt;/div&gt;" style="rounded=1;whiteSpace=wrap;html=1;fontSize=12;glass=0;strokeWidth=1;shadow=0;" vertex="1" parent="WIyWlLk6GJQsqaUBKTNV-1">
          <mxGeometry x="414" y="320" width="120" height="40" as="geometry" />
        </mxCell>
        <mxCell id="PSni2t7WZ-i_JzGDd249-9" value="Город" style="rounded=1;whiteSpace=wrap;html=1;fontSize=12;glass=0;strokeWidth=1;shadow=0;" vertex="1" parent="WIyWlLk6GJQsqaUBKTNV-1">
          <mxGeometry x="414" y="400" width="120" height="40" as="geometry" />
        </mxCell>
        <mxCell id="PSni2t7WZ-i_JzGDd249-11" value="" style="endArrow=classic;html=1;rounded=0;exitX=1;exitY=0.5;exitDx=0;exitDy=0;entryX=0;entryY=0.5;entryDx=0;entryDy=0;" edge="1" parent="WIyWlLk6GJQsqaUBKTNV-1" source="WIyWlLk6GJQsqaUBKTNV-3" target="PSni2t7WZ-i_JzGDd249-5">
          <mxGeometry width="50" height="50" relative="1" as="geometry">
            <mxPoint x="300" y="290" as="sourcePoint" />
            <mxPoint x="350" y="240" as="targetPoint" />
          </mxGeometry>
        </mxCell>
        <mxCell id="PSni2t7WZ-i_JzGDd249-12" value="" style="endArrow=classic;html=1;rounded=0;exitX=1;exitY=0.5;exitDx=0;exitDy=0;entryX=0;entryY=0.5;entryDx=0;entryDy=0;" edge="1" parent="WIyWlLk6GJQsqaUBKTNV-1" source="PSni2t7WZ-i_JzGDd249-0" target="PSni2t7WZ-i_JzGDd249-6">
          <mxGeometry width="50" height="50" relative="1" as="geometry">
            <mxPoint x="290" y="110" as="sourcePoint" />
            <mxPoint x="424" y="110" as="targetPoint" />
          </mxGeometry>
        </mxCell>
        <mxCell id="PSni2t7WZ-i_JzGDd249-13" value="" style="endArrow=classic;html=1;rounded=1;exitX=1;exitY=0.5;exitDx=0;exitDy=0;entryX=0;entryY=0.5;entryDx=0;entryDy=0;strokeWidth=1;curved=0;" edge="1" parent="WIyWlLk6GJQsqaUBKTNV-1" source="PSni2t7WZ-i_JzGDd249-1" target="PSni2t7WZ-i_JzGDd249-7">
          <mxGeometry width="50" height="50" relative="1" as="geometry">
            <mxPoint x="300" y="120" as="sourcePoint" />
            <mxPoint x="434" y="120" as="targetPoint" />
          </mxGeometry>
        </mxCell>
        <mxCell id="PSni2t7WZ-i_JzGDd249-14" value="" style="endArrow=classic;html=1;rounded=0;exitX=1;exitY=0.5;exitDx=0;exitDy=0;entryX=0;entryY=0.5;entryDx=0;entryDy=0;" edge="1" parent="WIyWlLk6GJQsqaUBKTNV-1" source="PSni2t7WZ-i_JzGDd249-4" target="PSni2t7WZ-i_JzGDd249-8">
          <mxGeometry width="50" height="50" relative="1" as="geometry">
            <mxPoint x="310" y="130" as="sourcePoint" />
            <mxPoint x="444" y="130" as="targetPoint" />
          </mxGeometry>
        </mxCell>
        <mxCell id="PSni2t7WZ-i_JzGDd249-15" value="" style="endArrow=classic;html=1;rounded=0;exitX=1;exitY=0.5;exitDx=0;exitDy=0;entryX=0;entryY=0.5;entryDx=0;entryDy=0;" edge="1" parent="WIyWlLk6GJQsqaUBKTNV-1" source="PSni2t7WZ-i_JzGDd249-3" target="PSni2t7WZ-i_JzGDd249-9">
          <mxGeometry width="50" height="50" relative="1" as="geometry">
            <mxPoint x="320" y="140" as="sourcePoint" />
            <mxPoint x="454" y="140" as="targetPoint" />
          </mxGeometry>
        </mxCell>
        <mxCell id="PSni2t7WZ-i_JzGDd249-16" value="&lt;font style=&quot;font-size: 9px;&quot;&gt;Название организации&lt;/font&gt;" style="text;strokeColor=none;fillColor=none;align=center;verticalAlign=middle;spacingLeft=4;spacingRight=4;overflow=hidden;points=[[0,0.5],[1,0.5]];portConstraint=eastwest;rotatable=0;whiteSpace=wrap;html=1;" vertex="1" parent="WIyWlLk6GJQsqaUBKTNV-1">
          <mxGeometry x="162.5" y="110" width="115" height="30" as="geometry" />
        </mxCell>
        <mxCell id="PSni2t7WZ-i_JzGDd249-17" value="&lt;font style=&quot;font-size: 9px;&quot;&gt;Название организации&lt;/font&gt;" style="text;strokeColor=none;fillColor=none;align=center;verticalAlign=middle;spacingLeft=4;spacingRight=4;overflow=hidden;points=[[0,0.5],[1,0.5]];portConstraint=eastwest;rotatable=0;whiteSpace=wrap;html=1;" vertex="1" parent="WIyWlLk6GJQsqaUBKTNV-1">
          <mxGeometry x="162.5" y="190" width="115" height="30" as="geometry" />
        </mxCell>
        <mxCell id="PSni2t7WZ-i_JzGDd249-18" value="&lt;font style=&quot;font-size: 9px;&quot;&gt;Название организации&lt;/font&gt;" style="text;strokeColor=none;fillColor=none;align=center;verticalAlign=middle;spacingLeft=4;spacingRight=4;overflow=hidden;points=[[0,0.5],[1,0.5]];portConstraint=eastwest;rotatable=0;whiteSpace=wrap;html=1;" vertex="1" parent="WIyWlLk6GJQsqaUBKTNV-1">
          <mxGeometry x="165" y="270" width="115" height="30" as="geometry" />
        </mxCell>
        <mxCell id="PSni2t7WZ-i_JzGDd249-19" value="&lt;font size=&quot;1&quot;&gt;ID&lt;/font&gt;" style="text;strokeColor=none;fillColor=none;align=center;verticalAlign=middle;spacingLeft=4;spacingRight=4;overflow=hidden;points=[[0,0.5],[1,0.5]];portConstraint=eastwest;rotatable=0;whiteSpace=wrap;html=1;" vertex="1" parent="WIyWlLk6GJQsqaUBKTNV-1">
          <mxGeometry x="201.25" y="350" width="37.5" height="30" as="geometry" />
        </mxCell>
        <mxCell id="PSni2t7WZ-i_JzGDd249-21" value="&lt;font size=&quot;1&quot;&gt;ID&lt;/font&gt;" style="text;strokeColor=none;fillColor=none;align=center;verticalAlign=middle;spacingLeft=4;spacingRight=4;overflow=hidden;points=[[0,0.5],[1,0.5]];portConstraint=eastwest;rotatable=0;whiteSpace=wrap;html=1;" vertex="1" parent="WIyWlLk6GJQsqaUBKTNV-1">
          <mxGeometry x="201.25" y="430" width="37.5" height="30" as="geometry" />
        </mxCell>
        <mxCell id="PSni2t7WZ-i_JzGDd249-22" value="&lt;font size=&quot;1&quot;&gt;Номер телефона&lt;/font&gt;" style="text;strokeColor=none;fillColor=none;align=center;verticalAlign=middle;spacingLeft=4;spacingRight=4;overflow=hidden;points=[[0,0.5],[1,0.5]];portConstraint=eastwest;rotatable=0;whiteSpace=wrap;html=1;" vertex="1" parent="WIyWlLk6GJQsqaUBKTNV-1">
          <mxGeometry x="424.62" y="110" width="98.75" height="30" as="geometry" />
        </mxCell>
        <mxCell id="PSni2t7WZ-i_JzGDd249-23" value="&lt;font size=&quot;1&quot;&gt;Код рубрики&lt;/font&gt;" style="text;strokeColor=none;fillColor=none;align=center;verticalAlign=middle;spacingLeft=4;spacingRight=4;overflow=hidden;points=[[0,0.5],[1,0.5]];portConstraint=eastwest;rotatable=0;whiteSpace=wrap;html=1;" vertex="1" parent="WIyWlLk6GJQsqaUBKTNV-1">
          <mxGeometry x="436.31" y="190" width="75.38" height="30" as="geometry" />
        </mxCell>
        <mxCell id="PSni2t7WZ-i_JzGDd249-25" value="&lt;font size=&quot;1&quot;&gt;Название города&lt;/font&gt;" style="text;strokeColor=none;fillColor=none;align=center;verticalAlign=middle;spacingLeft=4;spacingRight=4;overflow=hidden;points=[[0,0.5],[1,0.5]];portConstraint=eastwest;rotatable=0;whiteSpace=wrap;html=1;" vertex="1" parent="WIyWlLk6GJQsqaUBKTNV-1">
          <mxGeometry x="426.31" y="270" width="95.38" height="30" as="geometry" />
        </mxCell>
        <mxCell id="PSni2t7WZ-i_JzGDd249-26" value="&lt;font size=&quot;1&quot;&gt;Название города&lt;/font&gt;" style="text;strokeColor=none;fillColor=none;align=center;verticalAlign=middle;spacingLeft=4;spacingRight=4;overflow=hidden;points=[[0,0.5],[1,0.5]];portConstraint=eastwest;rotatable=0;whiteSpace=wrap;html=1;" vertex="1" parent="WIyWlLk6GJQsqaUBKTNV-1">
          <mxGeometry x="426.3" y="430" width="95.38" height="30" as="geometry" />
        </mxCell>
        <mxCell id="PSni2t7WZ-i_JzGDd249-27" value="&lt;font size=&quot;1&quot;&gt;О&lt;/font&gt;" style="text;strokeColor=none;fillColor=none;align=center;verticalAlign=middle;spacingLeft=4;spacingRight=4;overflow=hidden;points=[[0,0.5],[1,0.5]];portConstraint=eastwest;rotatable=0;whiteSpace=wrap;html=1;" vertex="1" parent="WIyWlLk6GJQsqaUBKTNV-1">
          <mxGeometry x="290" y="240" width="25.38" height="20" as="geometry" />
        </mxCell>
        <mxCell id="PSni2t7WZ-i_JzGDd249-28" value="&lt;font size=&quot;1&quot;&gt;Н&lt;/font&gt;" style="text;strokeColor=none;fillColor=none;align=center;verticalAlign=middle;spacingLeft=4;spacingRight=4;overflow=hidden;points=[[0,0.5],[1,0.5]];portConstraint=eastwest;rotatable=0;whiteSpace=wrap;html=1;" vertex="1" parent="WIyWlLk6GJQsqaUBKTNV-1">
          <mxGeometry x="380" y="240" width="25.38" height="20" as="geometry" />
        </mxCell>
        <mxCell id="PSni2t7WZ-i_JzGDd249-29" value="&lt;font size=&quot;1&quot;&gt;N&lt;/font&gt;" style="text;strokeColor=none;fillColor=none;align=center;verticalAlign=middle;spacingLeft=4;spacingRight=4;overflow=hidden;points=[[0,0.5],[1,0.5]];portConstraint=eastwest;rotatable=0;whiteSpace=wrap;html=1;" vertex="1" parent="WIyWlLk6GJQsqaUBKTNV-1">
          <mxGeometry x="290" y="260" width="25.38" height="20" as="geometry" />
        </mxCell>
        <mxCell id="PSni2t7WZ-i_JzGDd249-30" value="&lt;font size=&quot;1&quot;&gt;1&lt;/font&gt;" style="text;strokeColor=none;fillColor=none;align=center;verticalAlign=middle;spacingLeft=4;spacingRight=4;overflow=hidden;points=[[0,0.5],[1,0.5]];portConstraint=eastwest;rotatable=0;whiteSpace=wrap;html=1;" vertex="1" parent="WIyWlLk6GJQsqaUBKTNV-1">
          <mxGeometry x="380" y="260" width="25.38" height="20" as="geometry" />
        </mxCell>
        <mxCell id="PSni2t7WZ-i_JzGDd249-31" value="&lt;font size=&quot;1&quot;&gt;1&lt;/font&gt;" style="text;strokeColor=none;fillColor=none;align=center;verticalAlign=middle;spacingLeft=4;spacingRight=4;overflow=hidden;points=[[0,0.5],[1,0.5]];portConstraint=eastwest;rotatable=0;whiteSpace=wrap;html=1;" vertex="1" parent="WIyWlLk6GJQsqaUBKTNV-1">
          <mxGeometry x="290" y="340" width="25.38" height="20" as="geometry" />
        </mxCell>
        <mxCell id="PSni2t7WZ-i_JzGDd249-32" value="&lt;font size=&quot;1&quot;&gt;1&lt;/font&gt;" style="text;strokeColor=none;fillColor=none;align=center;verticalAlign=middle;spacingLeft=4;spacingRight=4;overflow=hidden;points=[[0,0.5],[1,0.5]];portConstraint=eastwest;rotatable=0;whiteSpace=wrap;html=1;" vertex="1" parent="WIyWlLk6GJQsqaUBKTNV-1">
          <mxGeometry x="380" y="340" width="25.38" height="20" as="geometry" />
        </mxCell>
        <mxCell id="PSni2t7WZ-i_JzGDd249-34" value="&lt;font size=&quot;1&quot;&gt;Н&lt;/font&gt;" style="text;strokeColor=none;fillColor=none;align=center;verticalAlign=middle;spacingLeft=4;spacingRight=4;overflow=hidden;points=[[0,0.5],[1,0.5]];portConstraint=eastwest;rotatable=0;whiteSpace=wrap;html=1;" vertex="1" parent="WIyWlLk6GJQsqaUBKTNV-1">
          <mxGeometry x="290" y="320" width="25.38" height="20" as="geometry" />
        </mxCell>
        <mxCell id="PSni2t7WZ-i_JzGDd249-35" value="&lt;font size=&quot;1&quot;&gt;О&lt;/font&gt;" style="text;strokeColor=none;fillColor=none;align=center;verticalAlign=middle;spacingLeft=4;spacingRight=4;overflow=hidden;points=[[0,0.5],[1,0.5]];portConstraint=eastwest;rotatable=0;whiteSpace=wrap;html=1;" vertex="1" parent="WIyWlLk6GJQsqaUBKTNV-1">
          <mxGeometry x="380" y="320" width="25.38" height="20" as="geometry" />
        </mxCell>
        <mxCell id="PSni2t7WZ-i_JzGDd249-36" value="&lt;font size=&quot;1&quot;&gt;N&lt;/font&gt;" style="text;strokeColor=none;fillColor=none;align=center;verticalAlign=middle;spacingLeft=4;spacingRight=4;overflow=hidden;points=[[0,0.5],[1,0.5]];portConstraint=eastwest;rotatable=0;whiteSpace=wrap;html=1;" vertex="1" parent="WIyWlLk6GJQsqaUBKTNV-1">
          <mxGeometry x="290" y="420" width="25.38" height="20" as="geometry" />
        </mxCell>
        <mxCell id="PSni2t7WZ-i_JzGDd249-37" value="&lt;font size=&quot;1&quot;&gt;1&lt;/font&gt;" style="text;strokeColor=none;fillColor=none;align=center;verticalAlign=middle;spacingLeft=4;spacingRight=4;overflow=hidden;points=[[0,0.5],[1,0.5]];portConstraint=eastwest;rotatable=0;whiteSpace=wrap;html=1;" vertex="1" parent="WIyWlLk6GJQsqaUBKTNV-1">
          <mxGeometry x="380" y="420" width="25.38" height="20" as="geometry" />
        </mxCell>
        <mxCell id="PSni2t7WZ-i_JzGDd249-38" value="&lt;font size=&quot;1&quot;&gt;О&lt;/font&gt;" style="text;strokeColor=none;fillColor=none;align=center;verticalAlign=middle;spacingLeft=4;spacingRight=4;overflow=hidden;points=[[0,0.5],[1,0.5]];portConstraint=eastwest;rotatable=0;whiteSpace=wrap;html=1;" vertex="1" parent="WIyWlLk6GJQsqaUBKTNV-1">
          <mxGeometry x="290" y="400" width="25.38" height="20" as="geometry" />
        </mxCell>
        <mxCell id="PSni2t7WZ-i_JzGDd249-39" value="&lt;font size=&quot;1&quot;&gt;Н&lt;/font&gt;" style="text;strokeColor=none;fillColor=none;align=center;verticalAlign=middle;spacingLeft=4;spacingRight=4;overflow=hidden;points=[[0,0.5],[1,0.5]];portConstraint=eastwest;rotatable=0;whiteSpace=wrap;html=1;" vertex="1" parent="WIyWlLk6GJQsqaUBKTNV-1">
          <mxGeometry x="380" y="400" width="25.38" height="20" as="geometry" />
        </mxCell>
        <mxCell id="PSni2t7WZ-i_JzGDd249-40" value="&lt;font size=&quot;1&quot;&gt;N&lt;/font&gt;" style="text;strokeColor=none;fillColor=none;align=center;verticalAlign=middle;spacingLeft=4;spacingRight=4;overflow=hidden;points=[[0,0.5],[1,0.5]];portConstraint=eastwest;rotatable=0;whiteSpace=wrap;html=1;" vertex="1" parent="WIyWlLk6GJQsqaUBKTNV-1">
          <mxGeometry x="290" y="180" width="25.38" height="20" as="geometry" />
        </mxCell>
        <mxCell id="PSni2t7WZ-i_JzGDd249-41" value="&lt;font size=&quot;1&quot;&gt;1&lt;/font&gt;" style="text;strokeColor=none;fillColor=none;align=center;verticalAlign=middle;spacingLeft=4;spacingRight=4;overflow=hidden;points=[[0,0.5],[1,0.5]];portConstraint=eastwest;rotatable=0;whiteSpace=wrap;html=1;" vertex="1" parent="WIyWlLk6GJQsqaUBKTNV-1">
          <mxGeometry x="380" y="180" width="25.38" height="20" as="geometry" />
        </mxCell>
        <mxCell id="PSni2t7WZ-i_JzGDd249-42" value="&lt;font size=&quot;1&quot;&gt;О&lt;/font&gt;" style="text;strokeColor=none;fillColor=none;align=center;verticalAlign=middle;spacingLeft=4;spacingRight=4;overflow=hidden;points=[[0,0.5],[1,0.5]];portConstraint=eastwest;rotatable=0;whiteSpace=wrap;html=1;" vertex="1" parent="WIyWlLk6GJQsqaUBKTNV-1">
          <mxGeometry x="290" y="160" width="25.38" height="20" as="geometry" />
        </mxCell>
        <mxCell id="PSni2t7WZ-i_JzGDd249-43" value="&lt;font size=&quot;1&quot;&gt;Н&lt;/font&gt;" style="text;strokeColor=none;fillColor=none;align=center;verticalAlign=middle;spacingLeft=4;spacingRight=4;overflow=hidden;points=[[0,0.5],[1,0.5]];portConstraint=eastwest;rotatable=0;whiteSpace=wrap;html=1;" vertex="1" parent="WIyWlLk6GJQsqaUBKTNV-1">
          <mxGeometry x="380" y="160" width="25.38" height="20" as="geometry" />
        </mxCell>
        <mxCell id="PSni2t7WZ-i_JzGDd249-44" value="&lt;font size=&quot;1&quot;&gt;1&lt;/font&gt;" style="text;strokeColor=none;fillColor=none;align=center;verticalAlign=middle;spacingLeft=4;spacingRight=4;overflow=hidden;points=[[0,0.5],[1,0.5]];portConstraint=eastwest;rotatable=0;whiteSpace=wrap;html=1;" vertex="1" parent="WIyWlLk6GJQsqaUBKTNV-1">
          <mxGeometry x="290" y="100" width="25.38" height="20" as="geometry" />
        </mxCell>
        <mxCell id="PSni2t7WZ-i_JzGDd249-45" value="&lt;font size=&quot;1&quot;&gt;N&lt;/font&gt;" style="text;strokeColor=none;fillColor=none;align=center;verticalAlign=middle;spacingLeft=4;spacingRight=4;overflow=hidden;points=[[0,0.5],[1,0.5]];portConstraint=eastwest;rotatable=0;whiteSpace=wrap;html=1;" vertex="1" parent="WIyWlLk6GJQsqaUBKTNV-1">
          <mxGeometry x="380" y="100" width="25.38" height="20" as="geometry" />
        </mxCell>
        <mxCell id="PSni2t7WZ-i_JzGDd249-46" value="&lt;font size=&quot;1&quot;&gt;Н&lt;/font&gt;" style="text;strokeColor=none;fillColor=none;align=center;verticalAlign=middle;spacingLeft=4;spacingRight=4;overflow=hidden;points=[[0,0.5],[1,0.5]];portConstraint=eastwest;rotatable=0;whiteSpace=wrap;html=1;" vertex="1" parent="WIyWlLk6GJQsqaUBKTNV-1">
          <mxGeometry x="290" y="80" width="25.38" height="20" as="geometry" />
        </mxCell>
        <mxCell id="PSni2t7WZ-i_JzGDd249-47" value="&lt;font size=&quot;1&quot;&gt;О&lt;/font&gt;" style="text;strokeColor=none;fillColor=none;align=center;verticalAlign=middle;spacingLeft=4;spacingRight=4;overflow=hidden;points=[[0,0.5],[1,0.5]];portConstraint=eastwest;rotatable=0;whiteSpace=wrap;html=1;" vertex="1" parent="WIyWlLk6GJQsqaUBKTNV-1">
          <mxGeometry x="380" y="80" width="25.38" height="20" as="geometry" />
        </mxCell>
        <mxCell id="PSni2t7WZ-i_JzGDd249-48" value="&lt;font size=&quot;1&quot;&gt;Номер телефона&lt;/font&gt;" style="text;strokeColor=none;fillColor=none;align=center;verticalAlign=middle;spacingLeft=4;spacingRight=4;overflow=hidden;points=[[0,0.5],[1,0.5]];portConstraint=eastwest;rotatable=0;whiteSpace=wrap;html=1;" vertex="1" parent="WIyWlLk6GJQsqaUBKTNV-1">
          <mxGeometry x="424.63" y="350" width="98.75" height="30" as="geometry" />
        </mxCell>
      </root>
    </mxGraphModel>
  </diagram>
</mxfile>
